<?xml version="1.0" encoding="us-ascii" standalone="no"?><svg xmlns="http://www.w3.org/2000/svg" xmlns:xlink="http://www.w3.org/1999/xlink" contentStyleType="text/css" height="885px" preserveAspectRatio="none" style="width:1557px;height:885px;background:#FFFFFF;" version="1.1" viewBox="0 0 1557 885" width="1557px" zoomAndPan="magnify"><defs/><g><!--class IBoardObject--><g id="elem_IBoardObject"><rect codeLine="22" fill="#F1F1F1" height="129.4844" id="IBoardObject" rx="2.5" ry="2.5" style="stroke:#181818;stroke-width:0.5;" width="377" x="240.5" y="378"/><ellipse cx="378.25" cy="394" fill="#B4A7E5" rx="11" ry="11" style="stroke:#181818;stroke-width:1.0;"/><path d="M379.2031,390.7813 L380.9219,390.7813 C381.3125,390.7813 381.5,390.75 381.625,390.6719 C381.8906,390.5156 382.0313,390.2344 382.0313,389.9375 C382.0313,389.6719 381.9219,389.4063 381.6875,389.2344 C381.5156,389.125 381.375,389.0938 380.9219,389.0938 L375.7813,389.0938 C375.3438,389.0938 375.2188,389.1094 375.0625,389.2031 C374.8125,389.3594 374.6563,389.6563 374.6563,389.9375 C374.6563,390.2188 374.7969,390.4688 375.0156,390.6406 C375.1719,390.75 375.3594,390.7813 375.7813,390.7813 L377.5,390.7813 L377.5,397.2969 L375.7813,397.2969 C375.3438,397.2969 375.2188,397.3125 375.0625,397.4219 C374.8125,397.5781 374.6563,397.8594 374.6563,398.1563 C374.6563,398.4063 374.7969,398.6719 375.0156,398.8281 C375.1719,398.9531 375.375,399 375.7813,399 L380.9219,399 C381.6719,399 382.0313,398.7188 382.0313,398.1563 C382.0313,397.875 381.9219,397.625 381.6875,397.4531 C381.5156,397.3281 381.375,397.2969 380.9219,397.2969 L379.2031,397.2969 L379.2031,390.7813 Z " fill="#000000"/><text fill="#000000" font-family="sans-serif" font-size="14" font-style="italic" lengthAdjust="spacing" textLength="93" x="398.75" y="398.8467">IBoardObject</text><line style="stroke:#181818;stroke-width:0.5;" x1="241.5" x2="616.5" y1="410" y2="410"/><ellipse cx="251.5" cy="423.6484" fill="none" rx="3" ry="3" style="stroke:#038048;stroke-width:1.0;"/><text fill="#000000" font-family="sans-serif" font-size="14" lengthAdjust="spacing" textLength="105" x="260.5" y="426.9951">Selected: bool</text><line style="stroke:#181818;stroke-width:0.5;" x1="241.5" x2="616.5" y1="434.2969" y2="434.2969"/><ellipse cx="251.5" cy="447.9453" fill="#84BE84" rx="3" ry="3" style="stroke:#038048;stroke-width:1.0;"/><text fill="#000000" font-family="sans-serif" font-size="14" lengthAdjust="spacing" textLength="259" x="260.5" y="451.292">Render(IRenderEngine engine): void</text><ellipse cx="251.5" cy="464.2422" fill="#84BE84" rx="3" ry="3" style="stroke:#038048;stroke-width:1.0;"/><text fill="#000000" font-family="sans-serif" font-size="14" lengthAdjust="spacing" textLength="351" x="260.5" y="467.5889">MouseTest(Point position, double distance): bool</text><ellipse cx="251.5" cy="480.5391" fill="#84BE84" rx="3" ry="3" style="stroke:#038048;stroke-width:1.0;"/><text fill="#000000" font-family="sans-serif" font-size="14" lengthAdjust="spacing" textLength="181" x="260.5" y="483.8857">Offset(Point offset): void</text><ellipse cx="251.5" cy="496.8359" fill="#84BE84" rx="3" ry="3" style="stroke:#038048;stroke-width:1.0;"/><text fill="#000000" font-family="sans-serif" font-size="14" lengthAdjust="spacing" textLength="155" x="260.5" y="500.1826">Clone(): IBoardObject</text></g><!--class BoardShape--><g id="elem_BoardShape"><rect codeLine="31" fill="#F1F1F1" height="162.0781" id="BoardShape" rx="2.5" ry="2.5" style="stroke:#181818;stroke-width:0.5;" width="368" x="211" y="608"/><ellipse cx="346.75" cy="624" fill="#A9DCDF" rx="11" ry="11" style="stroke:#181818;stroke-width:1.0;"/><path d="M348.8281,625.8125 L349.2188,626.7969 L348.8281,626.7969 C348.375,626.7969 348.2656,626.8125 348.1094,626.9219 C347.8594,627.0781 347.7031,627.3594 347.7031,627.6563 C347.7031,627.9219 347.8438,628.1719 348.0625,628.3281 C348.2031,628.4531 348.4063,628.5 348.8281,628.5 L351.1875,628.5 C351.5469,628.5 351.7656,628.4688 351.9063,628.375 C352.1563,628.2344 352.3125,627.9375 352.3125,627.6563 C352.3125,627.375 352.1719,627.125 351.9531,626.9688 C351.7813,626.8281 351.625,626.7969 351.1563,626.7969 L347.7656,618.5938 L344.0938,618.5938 C343.6406,618.5938 343.5156,618.6094 343.3594,618.7031 C343.1094,618.875 342.9531,619.1563 342.9531,619.4375 C342.9531,619.7188 343.0938,619.9688 343.3125,620.1406 C343.4844,620.25 343.6563,620.2813 344.0938,620.2813 L345.1719,620.2813 L342.5313,626.7969 C342.1094,626.7969 341.9531,626.8125 341.7969,626.9219 C341.5469,627.0781 341.3906,627.3594 341.3906,627.6563 C341.3906,628.2188 341.7656,628.5 342.5156,628.5 L344.7813,628.5 C345.1406,628.5 345.3594,628.4688 345.4844,628.375 C345.75,628.2344 345.8906,627.9375 345.8906,627.6563 C345.8906,627.375 345.7656,627.125 345.5469,626.9531 C345.375,626.8281 345.2344,626.7969 344.7813,626.7969 L344.3906,626.7969 L344.7813,625.8125 L348.8281,625.8125 Z M348.125,624.1094 L345.4531,624.1094 L346.7969,620.8438 L348.125,624.1094 Z " fill="#000000"/><text fill="#000000" font-family="sans-serif" font-size="14" font-style="italic" lengthAdjust="spacing" textLength="88" x="367.25" y="628.8467">BoardShape</text><line style="stroke:#181818;stroke-width:0.5;" x1="212" x2="578" y1="640" y2="640"/><ellipse cx="222" cy="653.6484" fill="none" rx="3" ry="3" style="stroke:#038048;stroke-width:1.0;"/><text fill="#000000" font-family="sans-serif" font-size="14" lengthAdjust="spacing" textLength="105" x="231" y="656.9951">Selected: bool</text><ellipse cx="222" cy="669.9453" fill="none" rx="3" ry="3" style="stroke:#038048;stroke-width:1.0;"/><text fill="#000000" font-family="sans-serif" font-size="14" lengthAdjust="spacing" textLength="129" x="231" y="673.292">Thickness: double</text><ellipse cx="222" cy="686.2422" fill="none" rx="3" ry="3" style="stroke:#038048;stroke-width:1.0;"/><text fill="#000000" font-family="sans-serif" font-size="14" lengthAdjust="spacing" textLength="81" x="231" y="689.5889">Color:Color</text><line style="stroke:#181818;stroke-width:0.5;" x1="212" x2="578" y1="696.8906" y2="696.8906"/><ellipse cx="222" cy="710.5391" fill="#84BE84" rx="3" ry="3" style="stroke:#038048;stroke-width:1.0;"/><text fill="#000000" font-family="sans-serif" font-size="14" font-style="italic" lengthAdjust="spacing" textLength="259" x="231" y="713.8857">Render(IRenderEngine engine): void</text><ellipse cx="222" cy="726.8359" fill="#84BE84" rx="3" ry="3" style="stroke:#038048;stroke-width:1.0;"/><text fill="#000000" font-family="sans-serif" font-size="14" font-style="italic" lengthAdjust="spacing" textLength="342" x="231" y="730.1826">MouseTest(Point position, double distance): bool</text><ellipse cx="222" cy="743.1328" fill="#84BE84" rx="3" ry="3" style="stroke:#038048;stroke-width:1.0;"/><text fill="#000000" font-family="sans-serif" font-size="14" font-style="italic" lengthAdjust="spacing" textLength="170" x="231" y="746.4795">Offset(Point offset): void</text><ellipse cx="222" cy="759.4297" fill="#84BE84" rx="3" ry="3" style="stroke:#038048;stroke-width:1.0;"/><text fill="#000000" font-family="sans-serif" font-size="14" font-style="italic" lengthAdjust="spacing" textLength="153" x="231" y="762.7764">Clone(): IBoardObject</text></g><!--class BoardLine--><g id="elem_BoardLine"><rect fill="#F1F1F1" height="48" id="BoardLine" rx="2.5" ry="2.5" style="stroke:#181818;stroke-width:0.5;" width="104" x="7" y="830"/><ellipse cx="22" cy="846" fill="#ADD1B2" rx="11" ry="11" style="stroke:#181818;stroke-width:1.0;"/><path d="M24.3438,841.6719 C23.4063,841.2344 22.8125,841.0938 21.9375,841.0938 C19.3125,841.0938 17.3125,843.1719 17.3125,845.8906 L17.3125,847.0156 C17.3125,849.5938 19.4219,851.4844 22.3125,851.4844 C23.5313,851.4844 24.6875,851.1875 25.4375,850.6406 C26.0156,850.2344 26.3438,849.7813 26.3438,849.3906 C26.3438,848.9375 25.9531,848.5469 25.4844,848.5469 C25.2656,848.5469 25.0625,848.625 24.875,848.8125 C24.4219,849.2969 24.4219,849.2969 24.2344,849.3906 C23.8125,849.6563 23.125,849.7813 22.3594,849.7813 C20.3125,849.7813 19.0156,848.6875 19.0156,846.9844 L19.0156,845.8906 C19.0156,844.1094 20.2656,842.7969 22,842.7969 C22.5781,842.7969 23.1875,842.9531 23.6563,843.2031 C24.1406,843.4844 24.3125,843.7031 24.4063,844.1094 C24.4688,844.5156 24.5,844.6406 24.6406,844.7656 C24.7813,844.9063 25.0156,845.0156 25.2344,845.0156 C25.5,845.0156 25.7656,844.875 25.9375,844.6563 C26.0469,844.5 26.0781,844.3125 26.0781,843.8906 L26.0781,842.4688 C26.0781,842.0313 26.0625,841.9063 25.9688,841.75 C25.8125,841.4844 25.5313,841.3438 25.2344,841.3438 C24.9375,841.3438 24.7344,841.4375 24.5156,841.75 L24.3438,841.6719 Z " fill="#000000"/><text fill="#000000" font-family="sans-serif" font-size="14" lengthAdjust="spacing" textLength="72" x="36" y="850.8467">BoardLine</text><line style="stroke:#181818;stroke-width:0.5;" x1="8" x2="110" y1="862" y2="862"/><line style="stroke:#181818;stroke-width:0.5;" x1="8" x2="110" y1="870" y2="870"/></g><!--class BoardRectangle--><g id="elem_BoardRectangle"><rect fill="#F1F1F1" height="48" id="BoardRectangle" rx="2.5" ry="2.5" style="stroke:#181818;stroke-width:0.5;" width="147" x="146.5" y="830"/><ellipse cx="161.5" cy="846" fill="#ADD1B2" rx="11" ry="11" style="stroke:#181818;stroke-width:1.0;"/><path d="M163.8438,841.6719 C162.9063,841.2344 162.3125,841.0938 161.4375,841.0938 C158.8125,841.0938 156.8125,843.1719 156.8125,845.8906 L156.8125,847.0156 C156.8125,849.5938 158.9219,851.4844 161.8125,851.4844 C163.0313,851.4844 164.1875,851.1875 164.9375,850.6406 C165.5156,850.2344 165.8438,849.7813 165.8438,849.3906 C165.8438,848.9375 165.4531,848.5469 164.9844,848.5469 C164.7656,848.5469 164.5625,848.625 164.375,848.8125 C163.9219,849.2969 163.9219,849.2969 163.7344,849.3906 C163.3125,849.6563 162.625,849.7813 161.8594,849.7813 C159.8125,849.7813 158.5156,848.6875 158.5156,846.9844 L158.5156,845.8906 C158.5156,844.1094 159.7656,842.7969 161.5,842.7969 C162.0781,842.7969 162.6875,842.9531 163.1563,843.2031 C163.6406,843.4844 163.8125,843.7031 163.9063,844.1094 C163.9688,844.5156 164,844.6406 164.1406,844.7656 C164.2813,844.9063 164.5156,845.0156 164.7344,845.0156 C165,845.0156 165.2656,844.875 165.4375,844.6563 C165.5469,844.5 165.5781,844.3125 165.5781,843.8906 L165.5781,842.4688 C165.5781,842.0313 165.5625,841.9063 165.4688,841.75 C165.3125,841.4844 165.0313,841.3438 164.7344,841.3438 C164.4375,841.3438 164.2344,841.4375 164.0156,841.75 L163.8438,841.6719 Z " fill="#000000"/><text fill="#000000" font-family="sans-serif" font-size="14" lengthAdjust="spacing" textLength="115" x="175.5" y="850.8467">BoardRectangle</text><line style="stroke:#181818;stroke-width:0.5;" x1="147.5" x2="292.5" y1="862" y2="862"/><line style="stroke:#181818;stroke-width:0.5;" x1="147.5" x2="292.5" y1="870" y2="870"/></g><!--class BoardTriangle--><g id="elem_BoardTriangle"><rect fill="#F1F1F1" height="48" id="BoardTriangle" rx="2.5" ry="2.5" style="stroke:#181818;stroke-width:0.5;" width="132" x="329" y="830"/><ellipse cx="344" cy="846" fill="#ADD1B2" rx="11" ry="11" style="stroke:#181818;stroke-width:1.0;"/><path d="M346.3438,841.6719 C345.4063,841.2344 344.8125,841.0938 343.9375,841.0938 C341.3125,841.0938 339.3125,843.1719 339.3125,845.8906 L339.3125,847.0156 C339.3125,849.5938 341.4219,851.4844 344.3125,851.4844 C345.5313,851.4844 346.6875,851.1875 347.4375,850.6406 C348.0156,850.2344 348.3438,849.7813 348.3438,849.3906 C348.3438,848.9375 347.9531,848.5469 347.4844,848.5469 C347.2656,848.5469 347.0625,848.625 346.875,848.8125 C346.4219,849.2969 346.4219,849.2969 346.2344,849.3906 C345.8125,849.6563 345.125,849.7813 344.3594,849.7813 C342.3125,849.7813 341.0156,848.6875 341.0156,846.9844 L341.0156,845.8906 C341.0156,844.1094 342.2656,842.7969 344,842.7969 C344.5781,842.7969 345.1875,842.9531 345.6563,843.2031 C346.1406,843.4844 346.3125,843.7031 346.4063,844.1094 C346.4688,844.5156 346.5,844.6406 346.6406,844.7656 C346.7813,844.9063 347.0156,845.0156 347.2344,845.0156 C347.5,845.0156 347.7656,844.875 347.9375,844.6563 C348.0469,844.5 348.0781,844.3125 348.0781,843.8906 L348.0781,842.4688 C348.0781,842.0313 348.0625,841.9063 347.9688,841.75 C347.8125,841.4844 347.5313,841.3438 347.2344,841.3438 C346.9375,841.3438 346.7344,841.4375 346.5156,841.75 L346.3438,841.6719 Z " fill="#000000"/><text fill="#000000" font-family="sans-serif" font-size="14" lengthAdjust="spacing" textLength="100" x="358" y="850.8467">BoardTriangle</text><line style="stroke:#181818;stroke-width:0.5;" x1="330" x2="460" y1="862" y2="862"/><line style="stroke:#181818;stroke-width:0.5;" x1="330" x2="460" y1="870" y2="870"/></g><!--class BoardEllipse--><g id="elem_BoardEllipse"><rect fill="#F1F1F1" height="48" id="BoardEllipse" rx="2.5" ry="2.5" style="stroke:#181818;stroke-width:0.5;" width="121" x="496.5" y="830"/><ellipse cx="511.5" cy="846" fill="#ADD1B2" rx="11" ry="11" style="stroke:#181818;stroke-width:1.0;"/><path d="M513.8438,841.6719 C512.9063,841.2344 512.3125,841.0938 511.4375,841.0938 C508.8125,841.0938 506.8125,843.1719 506.8125,845.8906 L506.8125,847.0156 C506.8125,849.5938 508.9219,851.4844 511.8125,851.4844 C513.0313,851.4844 514.1875,851.1875 514.9375,850.6406 C515.5156,850.2344 515.8438,849.7813 515.8438,849.3906 C515.8438,848.9375 515.4531,848.5469 514.9844,848.5469 C514.7656,848.5469 514.5625,848.625 514.375,848.8125 C513.9219,849.2969 513.9219,849.2969 513.7344,849.3906 C513.3125,849.6563 512.625,849.7813 511.8594,849.7813 C509.8125,849.7813 508.5156,848.6875 508.5156,846.9844 L508.5156,845.8906 C508.5156,844.1094 509.7656,842.7969 511.5,842.7969 C512.0781,842.7969 512.6875,842.9531 513.1563,843.2031 C513.6406,843.4844 513.8125,843.7031 513.9063,844.1094 C513.9688,844.5156 514,844.6406 514.1406,844.7656 C514.2813,844.9063 514.5156,845.0156 514.7344,845.0156 C515,845.0156 515.2656,844.875 515.4375,844.6563 C515.5469,844.5 515.5781,844.3125 515.5781,843.8906 L515.5781,842.4688 C515.5781,842.0313 515.5625,841.9063 515.4688,841.75 C515.3125,841.4844 515.0313,841.3438 514.7344,841.3438 C514.4375,841.3438 514.2344,841.4375 514.0156,841.75 L513.8438,841.6719 Z " fill="#000000"/><text fill="#000000" font-family="sans-serif" font-size="14" lengthAdjust="spacing" textLength="89" x="525.5" y="850.8467">BoardEllipse</text><line style="stroke:#181818;stroke-width:0.5;" x1="497.5" x2="616.5" y1="862" y2="862"/><line style="stroke:#181818;stroke-width:0.5;" x1="497.5" x2="616.5" y1="870" y2="870"/></g><!--class IDrawer--><g id="elem_IDrawer"><rect codeLine="43" fill="#F1F1F1" height="162.0781" id="IDrawer" rx="2.5" ry="2.5" style="stroke:#181818;stroke-width:0.5;" width="383" x="481.5" y="115"/><ellipse cx="640.75" cy="131" fill="#B4A7E5" rx="11" ry="11" style="stroke:#181818;stroke-width:1.0;"/><path d="M641.7031,127.7813 L643.4219,127.7813 C643.8125,127.7813 644,127.75 644.125,127.6719 C644.3906,127.5156 644.5313,127.2344 644.5313,126.9375 C644.5313,126.6719 644.4219,126.4063 644.1875,126.2344 C644.0156,126.125 643.875,126.0938 643.4219,126.0938 L638.2813,126.0938 C637.8438,126.0938 637.7188,126.1094 637.5625,126.2031 C637.3125,126.3594 637.1563,126.6563 637.1563,126.9375 C637.1563,127.2188 637.2969,127.4688 637.5156,127.6406 C637.6719,127.75 637.8594,127.7813 638.2813,127.7813 L640,127.7813 L640,134.2969 L638.2813,134.2969 C637.8438,134.2969 637.7188,134.3125 637.5625,134.4219 C637.3125,134.5781 637.1563,134.8594 637.1563,135.1563 C637.1563,135.4063 637.2969,135.6719 637.5156,135.8281 C637.6719,135.9531 637.875,136 638.2813,136 L643.4219,136 C644.1719,136 644.5313,135.7188 644.5313,135.1563 C644.5313,134.875 644.4219,134.625 644.1875,134.4531 C644.0156,134.3281 643.875,134.2969 643.4219,134.2969 L641.7031,134.2969 L641.7031,127.7813 Z " fill="#000000"/><text fill="#000000" font-family="sans-serif" font-size="14" font-style="italic" lengthAdjust="spacing" textLength="56" x="661.25" y="135.8467">IDrawer</text><line style="stroke:#181818;stroke-width:0.5;" x1="482.5" x2="863.5" y1="147" y2="147"/><ellipse cx="492.5" cy="160.6484" fill="none" rx="3" ry="3" style="stroke:#038048;stroke-width:1.0;"/><text fill="#000000" font-family="sans-serif" font-size="14" lengthAdjust="spacing" textLength="96" x="501.5" y="163.9951">Started: bool</text><line style="stroke:#181818;stroke-width:0.5;" x1="482.5" x2="863.5" y1="171.2969" y2="171.2969"/><ellipse cx="492.5" cy="184.9453" fill="#84BE84" rx="3" ry="3" style="stroke:#038048;stroke-width:1.0;"/><text fill="#000000" font-family="sans-serif" font-size="14" lengthAdjust="spacing" textLength="357" x="501.5" y="188.292">SetAttributes(double thickness, Color color): void</text><ellipse cx="492.5" cy="201.2422" fill="#84BE84" rx="3" ry="3" style="stroke:#038048;stroke-width:1.0;"/><text fill="#000000" font-family="sans-serif" font-size="14" lengthAdjust="spacing" textLength="187" x="501.5" y="204.5889">Start(Point position): void</text><ellipse cx="492.5" cy="217.5391" fill="#84BE84" rx="3" ry="3" style="stroke:#038048;stroke-width:1.0;"/><text fill="#000000" font-family="sans-serif" font-size="14" lengthAdjust="spacing" textLength="188" x="501.5" y="220.8857">Move(Point position): void</text><ellipse cx="492.5" cy="233.8359" fill="#84BE84" rx="3" ry="3" style="stroke:#038048;stroke-width:1.0;"/><text fill="#000000" font-family="sans-serif" font-size="14" lengthAdjust="spacing" textLength="187" x="501.5" y="237.1826">Click(Point position): bool</text><ellipse cx="492.5" cy="250.1328" fill="#84BE84" rx="3" ry="3" style="stroke:#038048;stroke-width:1.0;"/><text fill="#000000" font-family="sans-serif" font-size="14" lengthAdjust="spacing" textLength="259" x="501.5" y="253.4795">Render(IRenderEngine engine): void</text><ellipse cx="492.5" cy="266.4297" fill="#84BE84" rx="3" ry="3" style="stroke:#038048;stroke-width:1.0;"/><text fill="#000000" font-family="sans-serif" font-size="14" lengthAdjust="spacing" textLength="239" x="501.5" y="269.7764">GetBoardObject(): IBoardObject?</text></g><!--class AbsTwoPointsDrawer--><g id="elem_AbsTwoPointsDrawer"><rect codeLine="54" fill="#F1F1F1" height="210.9688" id="AbsTwoPointsDrawer" rx="2.5" ry="2.5" style="stroke:#181818;stroke-width:0.5;" width="383" x="971.5" y="337"/><ellipse cx="1084.25" cy="353" fill="#A9DCDF" rx="11" ry="11" style="stroke:#181818;stroke-width:1.0;"/><path d="M1086.3281,354.8125 L1086.7188,355.7969 L1086.3281,355.7969 C1085.875,355.7969 1085.7656,355.8125 1085.6094,355.9219 C1085.3594,356.0781 1085.2031,356.3594 1085.2031,356.6563 C1085.2031,356.9219 1085.3438,357.1719 1085.5625,357.3281 C1085.7031,357.4531 1085.9063,357.5 1086.3281,357.5 L1088.6875,357.5 C1089.0469,357.5 1089.2656,357.4688 1089.4063,357.375 C1089.6563,357.2344 1089.8125,356.9375 1089.8125,356.6563 C1089.8125,356.375 1089.6719,356.125 1089.4531,355.9688 C1089.2813,355.8281 1089.125,355.7969 1088.6563,355.7969 L1085.2656,347.5938 L1081.5938,347.5938 C1081.1406,347.5938 1081.0156,347.6094 1080.8594,347.7031 C1080.6094,347.875 1080.4531,348.1563 1080.4531,348.4375 C1080.4531,348.7188 1080.5938,348.9688 1080.8125,349.1406 C1080.9844,349.25 1081.1563,349.2813 1081.5938,349.2813 L1082.6719,349.2813 L1080.0313,355.7969 C1079.6094,355.7969 1079.4531,355.8125 1079.2969,355.9219 C1079.0469,356.0781 1078.8906,356.3594 1078.8906,356.6563 C1078.8906,357.2188 1079.2656,357.5 1080.0156,357.5 L1082.2813,357.5 C1082.6406,357.5 1082.8594,357.4688 1082.9844,357.375 C1083.25,357.2344 1083.3906,356.9375 1083.3906,356.6563 C1083.3906,356.375 1083.2656,356.125 1083.0469,355.9531 C1082.875,355.8281 1082.7344,355.7969 1082.2813,355.7969 L1081.8906,355.7969 L1082.2813,354.8125 L1086.3281,354.8125 Z M1085.625,353.1094 L1082.9531,353.1094 L1084.2969,349.8438 L1085.625,353.1094 Z " fill="#000000"/><text fill="#000000" font-family="sans-serif" font-size="14" font-style="italic" lengthAdjust="spacing" textLength="149" x="1104.75" y="357.8467">AbsTwoPointsDrawer</text><line style="stroke:#181818;stroke-width:0.5;" x1="972.5" x2="1353.5" y1="369" y2="369"/><ellipse cx="982.5" cy="382.6484" fill="none" rx="3" ry="3" style="stroke:#038048;stroke-width:1.0;"/><text fill="#000000" font-family="sans-serif" font-size="14" lengthAdjust="spacing" textLength="96" x="991.5" y="385.9951">Started: bool</text><line style="stroke:#181818;stroke-width:0.5;" x1="972.5" x2="1353.5" y1="393.2969" y2="393.2969"/><polygon fill="#FFFF44" points="982.5,401.9453,986.5,405.9453,982.5,409.9453,978.5,405.9453" style="stroke:#B38D22;stroke-width:1.0;"/><text fill="#000000" font-family="sans-serif" font-size="14" lengthAdjust="spacing" textLength="98" x="991.5" y="410.292">getPen(): Pen</text><polygon fill="#FFFF44" points="982.5,418.2422,986.5,422.2422,982.5,426.2422,978.5,422.2422" style="stroke:#B38D22;stroke-width:1.0;"/><text fill="#000000" font-family="sans-serif" font-size="14" lengthAdjust="spacing" textLength="124" x="991.5" y="426.5889">getBrush(): Brush</text><polygon fill="#FFFF44" points="982.5,434.5391,986.5,438.5391,982.5,442.5391,978.5,438.5391" style="stroke:#B38D22;stroke-width:1.0;"/><text fill="#000000" font-family="sans-serif" font-size="14" lengthAdjust="spacing" textLength="336" x="991.5" y="442.8857">adjustShape(BoardShape shape): IBoardObject</text><ellipse cx="982.5" cy="455.8359" fill="#84BE84" rx="3" ry="3" style="stroke:#038048;stroke-width:1.0;"/><text fill="#000000" font-family="sans-serif" font-size="14" lengthAdjust="spacing" textLength="357" x="991.5" y="459.1826">SetAttributes(double thickness, Color color): void</text><ellipse cx="982.5" cy="472.1328" fill="#84BE84" rx="3" ry="3" style="stroke:#038048;stroke-width:1.0;"/><text fill="#000000" font-family="sans-serif" font-size="14" lengthAdjust="spacing" textLength="187" x="991.5" y="475.4795">Start(Point position): void</text><ellipse cx="982.5" cy="488.4297" fill="#84BE84" rx="3" ry="3" style="stroke:#038048;stroke-width:1.0;"/><text fill="#000000" font-family="sans-serif" font-size="14" lengthAdjust="spacing" textLength="188" x="991.5" y="491.7764">Move(Point position): void</text><ellipse cx="982.5" cy="504.7266" fill="#84BE84" rx="3" ry="3" style="stroke:#038048;stroke-width:1.0;"/><text fill="#000000" font-family="sans-serif" font-size="14" lengthAdjust="spacing" textLength="187" x="991.5" y="508.0732">Click(Point position): bool</text><ellipse cx="982.5" cy="521.0234" fill="#84BE84" rx="3" ry="3" style="stroke:#038048;stroke-width:1.0;"/><text fill="#000000" font-family="sans-serif" font-size="14" font-style="italic" lengthAdjust="spacing" textLength="259" x="991.5" y="524.3701">Render(IRenderEngine engine): void</text><ellipse cx="982.5" cy="537.3203" fill="#84BE84" rx="3" ry="3" style="stroke:#038048;stroke-width:1.0;"/><text fill="#000000" font-family="sans-serif" font-size="14" font-style="italic" lengthAdjust="spacing" textLength="233" x="991.5" y="540.667">GetBoardObject(): IBoardObject?</text></g><!--class LineDrawer--><g id="elem_LineDrawer"><rect fill="#F1F1F1" height="48" id="LineDrawer" rx="2.5" ry="2.5" style="stroke:#181818;stroke-width:0.5;" width="113" x="903.5" y="665"/><ellipse cx="918.5" cy="681" fill="#ADD1B2" rx="11" ry="11" style="stroke:#181818;stroke-width:1.0;"/><path d="M920.8438,676.6719 C919.9063,676.2344 919.3125,676.0938 918.4375,676.0938 C915.8125,676.0938 913.8125,678.1719 913.8125,680.8906 L913.8125,682.0156 C913.8125,684.5938 915.9219,686.4844 918.8125,686.4844 C920.0313,686.4844 921.1875,686.1875 921.9375,685.6406 C922.5156,685.2344 922.8438,684.7813 922.8438,684.3906 C922.8438,683.9375 922.4531,683.5469 921.9844,683.5469 C921.7656,683.5469 921.5625,683.625 921.375,683.8125 C920.9219,684.2969 920.9219,684.2969 920.7344,684.3906 C920.3125,684.6563 919.625,684.7813 918.8594,684.7813 C916.8125,684.7813 915.5156,683.6875 915.5156,681.9844 L915.5156,680.8906 C915.5156,679.1094 916.7656,677.7969 918.5,677.7969 C919.0781,677.7969 919.6875,677.9531 920.1563,678.2031 C920.6406,678.4844 920.8125,678.7031 920.9063,679.1094 C920.9688,679.5156 921,679.6406 921.1406,679.7656 C921.2813,679.9063 921.5156,680.0156 921.7344,680.0156 C922,680.0156 922.2656,679.875 922.4375,679.6563 C922.5469,679.5 922.5781,679.3125 922.5781,678.8906 L922.5781,677.4688 C922.5781,677.0313 922.5625,676.9063 922.4688,676.75 C922.3125,676.4844 922.0313,676.3438 921.7344,676.3438 C921.4375,676.3438 921.2344,676.4375 921.0156,676.75 L920.8438,676.6719 Z " fill="#000000"/><text fill="#000000" font-family="sans-serif" font-size="14" lengthAdjust="spacing" textLength="81" x="932.5" y="685.8467">LineDrawer</text><line style="stroke:#181818;stroke-width:0.5;" x1="904.5" x2="1015.5" y1="697" y2="697"/><line style="stroke:#181818;stroke-width:0.5;" x1="904.5" x2="1015.5" y1="705" y2="705"/></g><!--class RectangleDrawer--><g id="elem_RectangleDrawer"><rect fill="#F1F1F1" height="48" id="RectangleDrawer" rx="2.5" ry="2.5" style="stroke:#181818;stroke-width:0.5;" width="156" x="1052" y="665"/><ellipse cx="1067" cy="681" fill="#ADD1B2" rx="11" ry="11" style="stroke:#181818;stroke-width:1.0;"/><path d="M1069.3438,676.6719 C1068.4063,676.2344 1067.8125,676.0938 1066.9375,676.0938 C1064.3125,676.0938 1062.3125,678.1719 1062.3125,680.8906 L1062.3125,682.0156 C1062.3125,684.5938 1064.4219,686.4844 1067.3125,686.4844 C1068.5313,686.4844 1069.6875,686.1875 1070.4375,685.6406 C1071.0156,685.2344 1071.3438,684.7813 1071.3438,684.3906 C1071.3438,683.9375 1070.9531,683.5469 1070.4844,683.5469 C1070.2656,683.5469 1070.0625,683.625 1069.875,683.8125 C1069.4219,684.2969 1069.4219,684.2969 1069.2344,684.3906 C1068.8125,684.6563 1068.125,684.7813 1067.3594,684.7813 C1065.3125,684.7813 1064.0156,683.6875 1064.0156,681.9844 L1064.0156,680.8906 C1064.0156,679.1094 1065.2656,677.7969 1067,677.7969 C1067.5781,677.7969 1068.1875,677.9531 1068.6563,678.2031 C1069.1406,678.4844 1069.3125,678.7031 1069.4063,679.1094 C1069.4688,679.5156 1069.5,679.6406 1069.6406,679.7656 C1069.7813,679.9063 1070.0156,680.0156 1070.2344,680.0156 C1070.5,680.0156 1070.7656,679.875 1070.9375,679.6563 C1071.0469,679.5 1071.0781,679.3125 1071.0781,678.8906 L1071.0781,677.4688 C1071.0781,677.0313 1071.0625,676.9063 1070.9688,676.75 C1070.8125,676.4844 1070.5313,676.3438 1070.2344,676.3438 C1069.9375,676.3438 1069.7344,676.4375 1069.5156,676.75 L1069.3438,676.6719 Z " fill="#000000"/><text fill="#000000" font-family="sans-serif" font-size="14" lengthAdjust="spacing" textLength="124" x="1081" y="685.8467">RectangleDrawer</text><line style="stroke:#181818;stroke-width:0.5;" x1="1053" x2="1207" y1="697" y2="697"/><line style="stroke:#181818;stroke-width:0.5;" x1="1053" x2="1207" y1="705" y2="705"/></g><!--class TriangleDrawer--><g id="elem_TriangleDrawer"><rect fill="#F1F1F1" height="48" id="TriangleDrawer" rx="2.5" ry="2.5" style="stroke:#181818;stroke-width:0.5;" width="141" x="1243.5" y="665"/><ellipse cx="1258.5" cy="681" fill="#ADD1B2" rx="11" ry="11" style="stroke:#181818;stroke-width:1.0;"/><path d="M1260.8438,676.6719 C1259.9063,676.2344 1259.3125,676.0938 1258.4375,676.0938 C1255.8125,676.0938 1253.8125,678.1719 1253.8125,680.8906 L1253.8125,682.0156 C1253.8125,684.5938 1255.9219,686.4844 1258.8125,686.4844 C1260.0313,686.4844 1261.1875,686.1875 1261.9375,685.6406 C1262.5156,685.2344 1262.8438,684.7813 1262.8438,684.3906 C1262.8438,683.9375 1262.4531,683.5469 1261.9844,683.5469 C1261.7656,683.5469 1261.5625,683.625 1261.375,683.8125 C1260.9219,684.2969 1260.9219,684.2969 1260.7344,684.3906 C1260.3125,684.6563 1259.625,684.7813 1258.8594,684.7813 C1256.8125,684.7813 1255.5156,683.6875 1255.5156,681.9844 L1255.5156,680.8906 C1255.5156,679.1094 1256.7656,677.7969 1258.5,677.7969 C1259.0781,677.7969 1259.6875,677.9531 1260.1563,678.2031 C1260.6406,678.4844 1260.8125,678.7031 1260.9063,679.1094 C1260.9688,679.5156 1261,679.6406 1261.1406,679.7656 C1261.2813,679.9063 1261.5156,680.0156 1261.7344,680.0156 C1262,680.0156 1262.2656,679.875 1262.4375,679.6563 C1262.5469,679.5 1262.5781,679.3125 1262.5781,678.8906 L1262.5781,677.4688 C1262.5781,677.0313 1262.5625,676.9063 1262.4688,676.75 C1262.3125,676.4844 1262.0313,676.3438 1261.7344,676.3438 C1261.4375,676.3438 1261.2344,676.4375 1261.0156,676.75 L1260.8438,676.6719 Z " fill="#000000"/><text fill="#000000" font-family="sans-serif" font-size="14" lengthAdjust="spacing" textLength="109" x="1272.5" y="685.8467">TriangleDrawer</text><line style="stroke:#181818;stroke-width:0.5;" x1="1244.5" x2="1383.5" y1="697" y2="697"/><line style="stroke:#181818;stroke-width:0.5;" x1="1244.5" x2="1383.5" y1="705" y2="705"/></g><!--class EllipseDrawer--><g id="elem_EllipseDrawer"><rect fill="#F1F1F1" height="48" id="EllipseDrawer" rx="2.5" ry="2.5" style="stroke:#181818;stroke-width:0.5;" width="130" x="1420" y="665"/><ellipse cx="1435" cy="681" fill="#ADD1B2" rx="11" ry="11" style="stroke:#181818;stroke-width:1.0;"/><path d="M1437.3438,676.6719 C1436.4063,676.2344 1435.8125,676.0938 1434.9375,676.0938 C1432.3125,676.0938 1430.3125,678.1719 1430.3125,680.8906 L1430.3125,682.0156 C1430.3125,684.5938 1432.4219,686.4844 1435.3125,686.4844 C1436.5313,686.4844 1437.6875,686.1875 1438.4375,685.6406 C1439.0156,685.2344 1439.3438,684.7813 1439.3438,684.3906 C1439.3438,683.9375 1438.9531,683.5469 1438.4844,683.5469 C1438.2656,683.5469 1438.0625,683.625 1437.875,683.8125 C1437.4219,684.2969 1437.4219,684.2969 1437.2344,684.3906 C1436.8125,684.6563 1436.125,684.7813 1435.3594,684.7813 C1433.3125,684.7813 1432.0156,683.6875 1432.0156,681.9844 L1432.0156,680.8906 C1432.0156,679.1094 1433.2656,677.7969 1435,677.7969 C1435.5781,677.7969 1436.1875,677.9531 1436.6563,678.2031 C1437.1406,678.4844 1437.3125,678.7031 1437.4063,679.1094 C1437.4688,679.5156 1437.5,679.6406 1437.6406,679.7656 C1437.7813,679.9063 1438.0156,680.0156 1438.2344,680.0156 C1438.5,680.0156 1438.7656,679.875 1438.9375,679.6563 C1439.0469,679.5 1439.0781,679.3125 1439.0781,678.8906 L1439.0781,677.4688 C1439.0781,677.0313 1439.0625,676.9063 1438.9688,676.75 C1438.8125,676.4844 1438.5313,676.3438 1438.2344,676.3438 C1437.9375,676.3438 1437.7344,676.4375 1437.5156,676.75 L1437.3438,676.6719 Z " fill="#000000"/><text fill="#000000" font-family="sans-serif" font-size="14" lengthAdjust="spacing" textLength="98" x="1449" y="685.8467">EllipseDrawer</text><line style="stroke:#181818;stroke-width:0.5;" x1="1421" x2="1549" y1="697" y2="697"/><line style="stroke:#181818;stroke-width:0.5;" x1="1421" x2="1549" y1="705" y2="705"/></g><!--class IRenderEngine--><g id="elem_IRenderEngine"><rect codeLine="68" fill="#F1F1F1" height="96.8906" id="IRenderEngine" rx="2.5" ry="2.5" style="stroke:#181818;stroke-width:0.5;" width="189" x="645.5" y="640.5"/><ellipse cx="683.9" cy="656.5" fill="#B4A7E5" rx="11" ry="11" style="stroke:#181818;stroke-width:1.0;"/><path d="M684.8531,653.2813 L686.5719,653.2813 C686.9625,653.2813 687.15,653.25 687.275,653.1719 C687.5406,653.0156 687.6813,652.7344 687.6813,652.4375 C687.6813,652.1719 687.5719,651.9063 687.3375,651.7344 C687.1656,651.625 687.025,651.5938 686.5719,651.5938 L681.4313,651.5938 C680.9938,651.5938 680.8688,651.6094 680.7125,651.7031 C680.4625,651.8594 680.3063,652.1563 680.3063,652.4375 C680.3063,652.7188 680.4469,652.9688 680.6656,653.1406 C680.8219,653.25 681.0094,653.2813 681.4313,653.2813 L683.15,653.2813 L683.15,659.7969 L681.4313,659.7969 C680.9938,659.7969 680.8688,659.8125 680.7125,659.9219 C680.4625,660.0781 680.3063,660.3594 680.3063,660.6563 C680.3063,660.9063 680.4469,661.1719 680.6656,661.3281 C680.8219,661.4531 681.025,661.5 681.4313,661.5 L686.5719,661.5 C687.3219,661.5 687.6813,661.2188 687.6813,660.6563 C687.6813,660.375 687.5719,660.125 687.3375,659.9531 C687.1656,659.8281 687.025,659.7969 686.5719,659.7969 L684.8531,659.7969 L684.8531,653.2813 Z " fill="#000000"/><text fill="#000000" font-family="sans-serif" font-size="14" font-style="italic" lengthAdjust="spacing" textLength="105" x="703.1" y="661.3467">IRenderEngine</text><line style="stroke:#181818;stroke-width:0.5;" x1="646.5" x2="833.5" y1="672.5" y2="672.5"/><line style="stroke:#181818;stroke-width:0.5;" x1="646.5" x2="833.5" y1="680.5" y2="680.5"/><ellipse cx="656.5" cy="694.1484" fill="#84BE84" rx="3" ry="3" style="stroke:#038048;stroke-width:1.0;"/><text fill="#000000" font-family="sans-serif" font-size="14" lengthAdjust="spacing" textLength="146" x="665.5" y="697.4951">RenderLine(...): void</text><ellipse cx="656.5" cy="710.4453" fill="#84BE84" rx="3" ry="3" style="stroke:#038048;stroke-width:1.0;"/><text fill="#000000" font-family="sans-serif" font-size="14" lengthAdjust="spacing" textLength="163" x="665.5" y="713.792">RenderEllipse(...): void</text><ellipse cx="656.5" cy="726.7422" fill="#84BE84" rx="3" ry="3" style="stroke:#038048;stroke-width:1.0;"/><text fill="#000000" font-family="sans-serif" font-size="14" lengthAdjust="spacing" textLength="149" x="665.5" y="730.0889">RenderPath(...): void</text></g><!--class NativeDrawingRenderEngine--><g id="elem_NativeDrawingRenderEngine"><rect fill="#F1F1F1" height="48" id="NativeDrawingRenderEngine" rx="2.5" ry="2.5" style="stroke:#181818;stroke-width:0.5;" width="237" x="652.5" y="830"/><ellipse cx="667.5" cy="846" fill="#ADD1B2" rx="11" ry="11" style="stroke:#181818;stroke-width:1.0;"/><path d="M669.8438,841.6719 C668.9063,841.2344 668.3125,841.0938 667.4375,841.0938 C664.8125,841.0938 662.8125,843.1719 662.8125,845.8906 L662.8125,847.0156 C662.8125,849.5938 664.9219,851.4844 667.8125,851.4844 C669.0313,851.4844 670.1875,851.1875 670.9375,850.6406 C671.5156,850.2344 671.8438,849.7813 671.8438,849.3906 C671.8438,848.9375 671.4531,848.5469 670.9844,848.5469 C670.7656,848.5469 670.5625,848.625 670.375,848.8125 C669.9219,849.2969 669.9219,849.2969 669.7344,849.3906 C669.3125,849.6563 668.625,849.7813 667.8594,849.7813 C665.8125,849.7813 664.5156,848.6875 664.5156,846.9844 L664.5156,845.8906 C664.5156,844.1094 665.7656,842.7969 667.5,842.7969 C668.0781,842.7969 668.6875,842.9531 669.1563,843.2031 C669.6406,843.4844 669.8125,843.7031 669.9063,844.1094 C669.9688,844.5156 670,844.6406 670.1406,844.7656 C670.2813,844.9063 670.5156,845.0156 670.7344,845.0156 C671,845.0156 671.2656,844.875 671.4375,844.6563 C671.5469,844.5 671.5781,844.3125 671.5781,843.8906 L671.5781,842.4688 C671.5781,842.0313 671.5625,841.9063 671.4688,841.75 C671.3125,841.4844 671.0313,841.3438 670.7344,841.3438 C670.4375,841.3438 670.2344,841.4375 670.0156,841.75 L669.8438,841.6719 Z " fill="#000000"/><text fill="#000000" font-family="sans-serif" font-size="14" lengthAdjust="spacing" textLength="205" x="681.5" y="850.8467">NativeDrawingRenderEngine</text><line style="stroke:#181818;stroke-width:0.5;" x1="653.5" x2="888.5" y1="862" y2="862"/><line style="stroke:#181818;stroke-width:0.5;" x1="653.5" x2="888.5" y1="870" y2="870"/></g><!--class VsBoard--><g id="elem_VsBoard"><rect fill="#F1F1F1" height="48" id="VsBoard" rx="2.5" ry="2.5" style="stroke:#181818;stroke-width:0.5;" width="91" x="627.5" y="7"/><ellipse cx="642.5" cy="23" fill="#ADD1B2" rx="11" ry="11" style="stroke:#181818;stroke-width:1.0;"/><path d="M644.8438,18.6719 C643.9063,18.2344 643.3125,18.0938 642.4375,18.0938 C639.8125,18.0938 637.8125,20.1719 637.8125,22.8906 L637.8125,24.0156 C637.8125,26.5938 639.9219,28.4844 642.8125,28.4844 C644.0313,28.4844 645.1875,28.1875 645.9375,27.6406 C646.5156,27.2344 646.8438,26.7813 646.8438,26.3906 C646.8438,25.9375 646.4531,25.5469 645.9844,25.5469 C645.7656,25.5469 645.5625,25.625 645.375,25.8125 C644.9219,26.2969 644.9219,26.2969 644.7344,26.3906 C644.3125,26.6563 643.625,26.7813 642.8594,26.7813 C640.8125,26.7813 639.5156,25.6875 639.5156,23.9844 L639.5156,22.8906 C639.5156,21.1094 640.7656,19.7969 642.5,19.7969 C643.0781,19.7969 643.6875,19.9531 644.1563,20.2031 C644.6406,20.4844 644.8125,20.7031 644.9063,21.1094 C644.9688,21.5156 645,21.6406 645.1406,21.7656 C645.2813,21.9063 645.5156,22.0156 645.7344,22.0156 C646,22.0156 646.2656,21.875 646.4375,21.6563 C646.5469,21.5 646.5781,21.3125 646.5781,20.8906 L646.5781,19.4688 C646.5781,19.0313 646.5625,18.9063 646.4688,18.75 C646.3125,18.4844 646.0313,18.3438 645.7344,18.3438 C645.4375,18.3438 645.2344,18.4375 645.0156,18.75 L644.8438,18.6719 Z " fill="#000000"/><text fill="#000000" font-family="sans-serif" font-size="14" lengthAdjust="spacing" textLength="59" x="656.5" y="27.8467">VsBoard</text><line style="stroke:#181818;stroke-width:0.5;" x1="628.5" x2="717.5" y1="39" y2="39"/><line style="stroke:#181818;stroke-width:0.5;" x1="628.5" x2="717.5" y1="47" y2="47"/></g><!--reverse link IBoardObject to BoardShape--><g id="link_IBoardObject_BoardShape"><path codeLine="1" d="M417.6766,524.9294 C413.4066,555.6334 410.717,574.978 406.178,607.62 " fill="none" id="IBoardObject-backto-BoardShape" style="stroke:#181818;stroke-width:1.0;stroke-dasharray:7.0,7.0;"/><polygon fill="none" points="420.156,507.101,411.7338,524.103,423.6194,525.7559,420.156,507.101" style="stroke:#181818;stroke-width:1.0;"/></g><!--reverse link BoardShape to BoardLine--><g id="link_BoardShape_BoardLine"><path codeLine="2" d="M213.7581,777.9236 C168.6161,799.8232 139.385,814.0036 106.717,829.8516 " fill="none" id="BoardShape-backto-BoardLine" style="stroke:#181818;stroke-width:1.0;"/><polygon fill="none" points="229.953,770.067,211.1393,772.5253,216.377,783.3219,229.953,770.067" style="stroke:#181818;stroke-width:1.0;"/></g><!--reverse link BoardShape to BoardRectangle--><g id="link_BoardShape_BoardRectangle"><path codeLine="3" d="M295.8667,782.3355 C272.3557,804.2351 261.867,814.0036 244.853,829.8516 " fill="none" id="BoardShape-backto-BoardRectangle" style="stroke:#181818;stroke-width:1.0;"/><polygon fill="none" points="309.038,770.067,291.7772,777.9451,299.9562,786.726,309.038,770.067" style="stroke:#181818;stroke-width:1.0;"/></g><!--reverse link BoardShape to BoardTriangle--><g id="link_BoardShape_BoardTriangle"><path codeLine="4" d="M395,788.067 C395,809.9666 395,814.0036 395,829.8516 " fill="none" id="BoardShape-backto-BoardTriangle" style="stroke:#181818;stroke-width:1.0;"/><polygon fill="none" points="395,770.067,389,788.067,401,788.067,395,770.067" style="stroke:#181818;stroke-width:1.0;"/></g><!--reverse link BoardShape to BoardEllipse--><g id="link_BoardShape_BoardEllipse"><path codeLine="5" d="M487.2646,782.8341 C509.0296,804.7337 518.243,814.0036 533.994,829.8516 " fill="none" id="BoardShape-backto-BoardEllipse" style="stroke:#181818;stroke-width:1.0;"/><polygon fill="none" points="474.576,770.067,483.0089,787.0636,491.5203,778.6046,474.576,770.067" style="stroke:#181818;stroke-width:1.0;"/></g><!--link IDrawer to IBoardObject--><g id="link_IDrawer_IBoardObject"><path codeLine="7" d="M593.105,277.058 C560.444,309.787 527.4313,342.867 496.6843,373.677 " fill="none" id="IDrawer-to-IBoardObject" style="stroke:#181818;stroke-width:1.0;stroke-dasharray:7.0,7.0;"/><polygon fill="#181818" points="492.446,377.924,501.6348,374.3791,495.9779,374.3848,495.9721,368.728,492.446,377.924" style="stroke:#181818;stroke-width:1.0;"/></g><!--reverse link IDrawer to AbsTwoPointsDrawer--><g id="link_IDrawer_AbsTwoPointsDrawer"><path codeLine="8" d="M849.5503,285.0947 C893.6503,307.0997 925.809,323.147 971.47,345.93 " fill="none" id="IDrawer-backto-AbsTwoPointsDrawer" style="stroke:#181818;stroke-width:1.0;stroke-dasharray:7.0,7.0;"/><polygon fill="none" points="833.444,277.058,846.8714,290.4634,852.2292,279.7259,833.444,277.058" style="stroke:#181818;stroke-width:1.0;"/></g><!--reverse link AbsTwoPointsDrawer to LineDrawer--><g id="link_AbsTwoPointsDrawer_LineDrawer"><path codeLine="9" d="M1064.5303,562.1016 C1028.5803,605.3916 1001.66,637.824 979.287,664.77 " fill="none" id="AbsTwoPointsDrawer-backto-LineDrawer" style="stroke:#181818;stroke-width:1.0;"/><polygon fill="none" points="1076.03,548.254,1059.9144,558.2684,1069.1462,565.9349,1076.03,548.254" style="stroke:#181818;stroke-width:1.0;"/></g><!--reverse link AbsTwoPointsDrawer to RectangleDrawer--><g id="link_AbsTwoPointsDrawer_RectangleDrawer"><path codeLine="10" d="M1146.4535,566.0924 C1140.6135,609.3824 1136.77,637.824 1133.14,664.77 " fill="none" id="AbsTwoPointsDrawer-backto-RectangleDrawer" style="stroke:#181818;stroke-width:1.0;"/><polygon fill="none" points="1148.86,548.254,1140.5074,565.2903,1152.3997,566.8946,1148.86,548.254" style="stroke:#181818;stroke-width:1.0;"/></g><!--reverse link AbsTwoPointsDrawer to TriangleDrawer--><g id="link_AbsTwoPointsDrawer_TriangleDrawer"><path codeLine="11" d="M1237.1494,563.568 C1263.8894,606.858 1283.01,637.824 1299.65,664.77 " fill="none" id="AbsTwoPointsDrawer-backto-TriangleDrawer" style="stroke:#181818;stroke-width:1.0;"/><polygon fill="none" points="1227.69,548.254,1232.0447,566.7212,1242.2541,560.4149,1227.69,548.254" style="stroke:#181818;stroke-width:1.0;"/></g><!--reverse link AbsTwoPointsDrawer to EllipseDrawer--><g id="link_AbsTwoPointsDrawer_EllipseDrawer"><path codeLine="12" d="M1337.5125,558.5348 C1364.5025,577.7148 1377.13,587.686 1402,608 C1423.86,625.851 1446.81,648.307 1463.03,664.88 " fill="none" id="AbsTwoPointsDrawer-backto-EllipseDrawer" style="stroke:#181818;stroke-width:1.0;"/><polygon fill="none" points="1322.84,548.108,1334.0369,563.4256,1340.9881,553.6439,1322.84,548.108" style="stroke:#181818;stroke-width:1.0;"/></g><!--link IBoardObject to IRenderEngine--><g id="link_IBoardObject_IRenderEngine"><path codeLine="14" d="M509.9,507.101 C562.813,548.7 626.1122,598.4637 674.4392,636.4577 " fill="none" id="IBoardObject-to-IRenderEngine" style="stroke:#181818;stroke-width:1.0;stroke-dasharray:7.0,7.0;"/><polygon fill="#181818" points="679.156,640.166,674.553,631.459,675.2253,637.0757,669.6086,637.7481,679.156,640.166" style="stroke:#181818;stroke-width:1.0;"/></g><!--link IDrawer to IRenderEngine--><g id="link_IDrawer_IRenderEngine"><path codeLine="15" d="M683.951,277.254 C698.032,380.441 721.2208,550.3771 732.6998,634.4991 " fill="none" id="IDrawer-to-IRenderEngine" style="stroke:#181818;stroke-width:1.0;stroke-dasharray:7.0,7.0;"/><polygon fill="#181818" points="733.511,640.444,736.2574,630.9858,732.835,635.4899,728.3309,632.0675,733.511,640.444" style="stroke:#181818;stroke-width:1.0;"/></g><!--reverse link IRenderEngine to NativeDrawingRenderEngine--><g id="link_IRenderEngine_NativeDrawingRenderEngine"><path codeLine="16" d="M752.4128,755.2681 C758.1668,785.5251 762.003,805.6909 766.553,829.6149 " fill="none" id="IRenderEngine-backto-NativeDrawingRenderEngine" style="stroke:#181818;stroke-width:1.0;stroke-dasharray:7.0,7.0;"/><polygon fill="none" points="749.05,737.585,746.5184,756.389,758.3072,754.1471,749.05,737.585" style="stroke:#181818;stroke-width:1.0;"/></g><!--reverse link VsBoard to IRenderEngine--><g id="link_VsBoard_IRenderEngine"><path codeLine="18" d="M730.7268,37.2879 C780.4198,44.0069 845.6,61.379 882,115 C996.406,283.532 847.58,535.752 775.294,640.133 " fill="none" id="VsBoard-backto-IRenderEngine" style="stroke:#181818;stroke-width:1.0;"/><polygon fill="#181818" points="718.835,35.68,724.2449,40.4479,730.7268,37.2879,725.3169,32.52,718.835,35.68" style="stroke:#181818;stroke-width:1.0;"/></g><!--reverse link VsBoard to IDrawer--><g id="link_VsBoard_IDrawer"><path codeLine="19" d="M673,67.008 C673,82.804 673,92.796 673,114.675 " fill="none" id="VsBoard-backto-IDrawer" style="stroke:#181818;stroke-width:1.0;"/><polygon fill="none" points="673,55.008,669,61.008,673,67.008,677,61.008,673,55.008" style="stroke:#181818;stroke-width:1.0;"/></g><!--reverse link VsBoard to IBoardObject--><g id="link_VsBoard_IBoardObject"><path codeLine="20" d="M615.461,38.3853 C566.67,45.8773 502.974,63.709 464,115 C406.486,190.69 409.048,306.303 417.825,377.717 " fill="none" id="VsBoard-backto-IBoardObject" style="stroke:#181818;stroke-width:1.0;"/><polygon fill="none" points="627.322,36.564,620.7844,33.521,615.461,38.3853,621.9986,41.4283,627.322,36.564" style="stroke:#181818;stroke-width:1.0;"/><text fill="#000000" font-family="sans-serif" font-size="13" lengthAdjust="spacing" textLength="8" x="611.4046" y="33.3329">1</text><text fill="#000000" font-family="sans-serif" font-size="13" lengthAdjust="spacing" textLength="37" x="377.5793" y="366.8587">many</text></g><!--SRC=[pLHTJzim57tthx3AIzWWqbwhQHCmX2h1g6YrToUvRSsCNVawHLFfVvy_ac87qcpmGXwS-9phwtEFRpmvLqnNjyKzb8P-VSfpwe7PYgs1F7zQwlGqKDTSzZ1tDWUJIz53ppK_m5uAmTS8X4n-QFO8ckRvDpg9rEq9h_AimFcZcYek3GQSl8H2UYTu86IlV22kBM4WhAcbYI9n5Q6iEv0Lw4kvT5uc1QTCF0jr_sI6RtncBfT9CFc5VX_woIf8yxICSaoZgiL6NqOU7pqm-MUKEaviOQ0Nh8GKtn9gdyyp47O6rPWMIec0XNspL3dur_6ORXIlGjoDgX7cW2Rpzj6rGcwuaYUqKdKXW5OSxP6KRjLpzjl50g5TelmaoNeXb8JCGedS7I6iGAEPjRyK337kyGErp5Uy_2q1STo8QZPHGkcn7qb0wBRDlwF_Qa2yvcrcn1c6Z8bZUqsAJhjfajOSmtJ7cncOCsCqBse3c3KoJMlO2VNsqDADYH2VgbDcfp4sS8Y_47QFbm7_tu5NOABwktvyfw-qpIkNJgz3HqimKv0khttjeNDTuyg1_YF0hBglqVXspAAx4TtOFQOFRlvx_uI1G-bqQNB9RUFZTtT-bkTvib4J7Yxd7dRAp2gcTdy1]--></g></svg>